<svg id="Layer_1" data-name="Layer 1" xmlns="http://www.w3.org/2000/svg" xmlns:xlink="http://www.w3.org/1999/xlink" viewBox="0 0 1008.84 149"><defs><style>.cls-1{fill:url(#linear-gradient);}.cls-2{fill:url(#linear-gradient-2);}.cls-3{fill:url(#linear-gradient-3);}.cls-4{fill:url(#linear-gradient-4);}.cls-5{fill:url(#linear-gradient-5);}.cls-6{fill:url(#linear-gradient-6);}.cls-7{fill:url(#linear-gradient-7);}.cls-8{fill:url(#linear-gradient-8);}.cls-9{fill:url(#linear-gradient-9);}.cls-10{fill:url(#linear-gradient-10);}.cls-11{fill:url(#linear-gradient-11);}.cls-12{fill:url(#linear-gradient-12);}.cls-13{fill:url(#linear-gradient-13);}.cls-14{fill:url(#linear-gradient-14);}</style><linearGradient id="linear-gradient" x1="676.27" y1="676.65" x2="676.27" y2="603.35" gradientUnits="userSpaceOnUse"><stop offset="0" stop-color="#006cd8"/><stop offset="1" stop-color="#12c8b9"/></linearGradient><linearGradient id="linear-gradient-2" x1="749.24" y1="676.65" x2="749.24" y2="603.35" xlink:href="#linear-gradient"/><linearGradient id="linear-gradient-3" x1="815.46" y1="676.65" x2="815.46" y2="603.35" xlink:href="#linear-gradient"/><linearGradient id="linear-gradient-4" x1="882.31" y1="676.65" x2="882.31" y2="603.35" xlink:href="#linear-gradient"/><linearGradient id="linear-gradient-5" x1="948.79" y1="676.65" x2="948.79" y2="603.35" xlink:href="#linear-gradient"/><linearGradient id="linear-gradient-6" x1="1010.82" y1="676.65" x2="1010.82" y2="603.35" xlink:href="#linear-gradient"/><linearGradient id="linear-gradient-7" x1="1076.62" y1="676.65" x2="1076.62" y2="602.83" xlink:href="#linear-gradient"/><linearGradient id="linear-gradient-8" x1="1137.24" y1="676.65" x2="1137.24" y2="603.35" xlink:href="#linear-gradient"/><linearGradient id="linear-gradient-9" x1="1202.62" y1="676.65" x2="1202.62" y2="603.35" xlink:href="#linear-gradient"/><linearGradient id="linear-gradient-10" x1="1273.24" y1="677.9" x2="1273.24" y2="602.1" xlink:href="#linear-gradient"/><linearGradient id="linear-gradient-11" x1="1353.07" y1="676.65" x2="1353.07" y2="603.35" xlink:href="#linear-gradient"/><linearGradient id="linear-gradient-12" x1="1428.4" y1="676.65" x2="1428.4" y2="603.35" xlink:href="#linear-gradient"/><linearGradient id="linear-gradient-13" x1="95.79" y1="149" x2="95.79" y2="0" xlink:href="#linear-gradient"/><linearGradient id="linear-gradient-14" x1="53.21" y1="149" x2="53.21" y2="0" xlink:href="#linear-gradient"/></defs><path class="cls-1" d="M644.33,603.35h11.94L695.54,654V603.35H708.2v73.3H697.42L657,624.5v52.15H644.33Z" transform="translate(-455.58 -565.5)"/><path class="cls-2" d="M721.81,603.35h54.34v11.52H734.69v19.06h36.75v11.51H734.69v19.69h42v11.52H721.81Z" transform="translate(-455.58 -565.5)"/><path class="cls-3" d="M848.71,603.35l-25.55,35.81,26.59,37.49H834.57l-19.37-28-19.27,28H781.17l26.49-37.28-25.44-36H797.4L815.62,630l18.32-26.6Z" transform="translate(-455.58 -565.5)"/><path class="cls-4" d="M875.82,615.29H852.57V603.35h59.48v11.94H888.8v61.36h-13Z" transform="translate(-455.58 -565.5)"/><path class="cls-5" d="M920.42,603.35h28.9c17.17,0,27.85,9.74,27.85,24.5v.21c0,16.44-13.2,25-29.32,25H933.29v23.56H920.42Zm27.85,38.12c9.73,0,15.81-5.45,15.81-13.09v-.21c0-8.59-6.18-13.09-15.81-13.09h-15v26.39Z" transform="translate(-455.58 -565.5)"/><path class="cls-6" d="M985.12,603.35H998v61.57h38.53v11.73H985.12Z" transform="translate(-455.58 -565.5)"/><path class="cls-7" d="M1070.66,602.83h11.93l32.25,73.82h-13.61L1093.8,659h-34.66l-7.54,17.7h-13.19Zm18.42,44.71-12.67-29.32-12.56,29.32Z" transform="translate(-455.58 -565.5)"/><path class="cls-8" d="M1130.75,615.29h-23.24V603.35H1167v11.94h-23.25v61.36h-13Z" transform="translate(-455.58 -565.5)"/><path class="cls-9" d="M1175.35,603.35h54.55v11.73h-41.67v20h37v11.73h-37v29.84h-12.88Z" transform="translate(-455.58 -565.5)"/><path class="cls-10" d="M1234.92,640.21V640c0-20.63,15.91-37.9,38.43-37.9s38.21,17.06,38.21,37.69V640c0,20.63-15.91,37.9-38.42,37.9S1234.92,660.84,1234.92,640.21Zm63.14,0V640c0-14.24-10.37-26.07-24.92-26.07s-24.71,11.62-24.71,25.86V640c0,14.24,10.36,26,24.92,26S1298.06,654.45,1298.06,640.21Z" transform="translate(-455.58 -565.5)"/><path class="cls-11" d="M1321.92,603.35h32.67c9.21,0,16.44,2.73,21.15,7.33a22.18,22.18,0,0,1,6.07,15.81v.21c0,12-7.22,19.27-17.38,22.2l19.79,27.75h-15.29l-18-25.55H1334.8v25.55h-12.88Zm31.73,36.34c9.21,0,15.07-4.82,15.07-12.25v-.21c0-7.86-5.65-12.15-15.18-12.15H1334.8v24.61Z" transform="translate(-455.58 -565.5)"/><path class="cls-12" d="M1392.38,603.35h13.72L1428.4,638l22.3-34.66h13.72v73.3h-12.88V624.08l-23.14,34.56H1428l-22.93-34.35v52.36h-12.67Z" transform="translate(-455.58 -565.5)"/><polygon class="cls-13" points="149 0 149 149 42.57 149 42.57 42.57 63.86 42.57 63.86 127.71 127.71 127.71 127.71 0 149 0"/><polygon class="cls-14" points="106.43 0 106.43 106.43 85.14 106.43 85.14 21.29 21.29 21.29 21.29 149 0 149 0 0 106.43 0"/></svg>