<svg version="1.1" id="Layer_1" xmlns="http://www.w3.org/2000/svg" xmlns:xlink="http://www.w3.org/1999/xlink" x="0px" y="0px"
	 width="100%" viewBox="95 270 1485 405" enable-background="new 95 270 1485 405" xml:space="preserve">
<path fill="#0C1522" opacity="1.000000" stroke="none" 
	d="
M974.000000,942.000000 
	C649.333313,942.000000 325.166656,942.000000 1.000000,942.000000 
	C1.000000,628.333313 1.000000,314.666656 1.000000,1.000000 
	C558.333313,1.000000 1115.666626,1.000000 1673.000000,1.000000 
	C1673.000000,314.666656 1673.000000,628.333313 1673.000000,942.000000 
	C1440.166626,942.000000 1207.333374,942.000000 974.000000,942.000000 
M916.038818,576.436584 
	C915.695679,577.642761 915.056763,578.848083 915.053284,580.055237 
	C914.991394,601.761108 914.981689,623.467285 915.067444,645.172974 
	C915.072449,646.441040 915.982971,647.705566 917.135986,649.603882 
	C932.345520,649.603882 947.555054,649.603882 962.753418,649.603882 
	C962.753418,645.745300 962.753418,642.356140 962.753418,638.461121 
	C951.070679,638.461121 939.713196,638.461121 927.850098,638.461121 
	C927.850098,617.440430 927.850098,596.935974 927.850098,576.211731 
	C923.856995,576.211731 920.384460,576.211731 916.038818,576.436584 
M461.533813,649.860352 
	C464.668793,649.860352 467.803772,649.860352 471.768982,649.860352 
	C471.768982,632.202576 471.768982,614.938477 471.768982,597.674438 
	C483.585907,612.967346 494.382782,628.359802 505.151428,643.772095 
	C509.991455,650.699280 511.472351,651.247375 520.316589,649.128662 
	C520.316589,624.901062 520.316589,600.685730 520.316589,576.502563 
	C516.441589,576.502563 513.016479,576.502563 509.104675,576.502563 
	C509.104675,594.145508 509.104675,611.492493 509.104675,630.189636 
	C507.779938,628.326050 507.234161,627.574219 506.704712,626.811096 
	C497.120880,612.996582 487.066742,599.476074 478.157410,585.239319 
	C473.751831,578.199402 468.872437,574.638184 459.876129,576.442688 
	C459.591431,577.351807 459.060120,578.260437 459.058136,579.170166 
	C459.009247,601.527405 458.989807,623.884888 459.085999,646.241760 
	C459.091278,647.469604 460.142120,648.692932 461.533813,649.860352 
M1316.488403,577.530029 
	C1316.330811,578.334290 1316.036499,579.138428 1316.035522,579.942871 
	C1316.009277,601.755859 1315.995850,623.568970 1316.058228,645.381775 
	C1316.061646,646.597229 1316.733643,647.810730 1317.716675,649.558533 
	C1321.296753,649.558533 1324.876709,649.558533 1329.013916,649.558533 
	C1329.013916,631.917236 1329.013916,614.592163 1329.013916,596.287781 
	C1330.130005,597.633423 1330.567139,598.083008 1330.916504,598.592773 
	C1341.932861,614.670288 1352.909546,630.775330 1364.007568,646.796204 
	C1364.924561,648.119751 1366.555420,649.542419 1368.027954,649.763367 
	C1371.080078,650.221252 1374.248779,649.901550 1377.607666,649.901550 
	C1377.607666,625.160828 1377.607666,600.927246 1377.607666,576.583008 
	C1373.756958,576.583008 1370.226562,576.583008 1366.008179,576.583008 
	C1366.008179,594.043762 1366.008179,611.153870 1366.008179,629.368896 
	C1354.712158,613.103821 1344.152954,597.938354 1333.637939,582.742126 
	C1328.705566,575.614014 1326.102539,574.661865 1316.488403,577.530029 
M1539.270508,412.938965 
	C1539.206543,401.038605 1539.142578,389.138275 1538.534058,376.571381 
	C1537.742554,376.387787 1536.951294,376.044769 1536.159546,376.043701 
	C1511.308472,376.010345 1486.457397,375.995178 1461.606445,376.051056 
	C1460.397827,376.053741 1459.190918,376.724457 1457.176392,376.716492 
	C1457.176392,360.777161 1457.176392,344.837860 1457.176392,328.417114 
	C1489.058105,328.417114 1520.461304,328.417114 1551.927246,328.417114 
	C1551.927246,316.157776 1551.927246,304.387054 1551.927246,292.410645 
	C1506.791138,292.410645 1461.917847,292.410645 1416.659546,292.410645 
	C1416.659546,294.315582 1416.659790,295.960846 1416.659424,297.606110 
	C1416.645386,363.254883 1416.626953,428.903656 1416.638062,494.552429 
	C1416.638428,496.531891 1416.946411,498.511292 1417.500488,501.253571 
	C1418.764893,501.499939 1420.029053,501.960510 1421.293701,501.961639 
	C1463.344604,501.999054 1505.395508,502.005951 1547.446289,501.937775 
	C1548.936279,501.935364 1550.425049,501.125122 1552.115234,499.878296 
	C1552.115234,488.085052 1552.115234,476.291809 1552.115234,463.948456 
	C1520.326782,463.948456 1488.793335,463.948456 1457.091553,463.948456 
	C1457.091553,447.584229 1457.080566,431.772858 1457.129395,415.961670 
	C1457.131470,415.285248 1457.685669,414.610535 1458.563721,414.542206 
	C1459.205200,414.686584 1459.846436,414.956604 1460.488037,414.957245 
	C1485.478149,414.982086 1510.468384,415.000244 1535.458374,414.928619 
	C1536.607544,414.925323 1537.754272,414.087067 1539.270508,412.938965 
M980.749878,292.234009 
	C967.989990,292.234009 955.230042,292.234009 942.095886,292.234009 
	C942.095886,296.109436 942.092834,299.416016 942.096375,302.722626 
	C942.118958,323.545898 942.181763,344.369263 942.155334,365.192474 
	C942.130371,384.848297 942.525696,404.523560 941.777588,424.153778 
	C941.141907,440.833191 934.992310,455.318481 919.044983,463.097382 
	C902.732239,471.054565 885.852356,470.630310 869.151917,463.849304 
	C861.996460,460.943939 856.546143,455.815765 852.392212,449.370056 
	C846.297607,439.912994 844.759949,429.304169 844.769226,418.316467 
	C844.803223,378.002563 844.809692,337.688690 844.826538,297.374786 
	C844.827209,295.767090 844.826660,294.159363 844.826660,292.463928 
	C831.022949,292.463928 817.781250,292.463928 804.276001,292.463928 
	C804.206238,293.679382 804.102661,294.643127 804.102661,295.606873 
	C804.103516,337.919617 804.053223,380.232544 804.198792,422.544800 
	C804.216980,427.836945 804.918701,433.193512 805.911255,438.404480 
	C811.460510,467.539429 827.090027,488.821411 855.395264,499.257874 
	C880.711121,508.592133 906.337769,508.290253 931.613708,498.826599 
	C949.796631,492.018616 963.529602,479.875580 972.356018,462.443787 
	C978.473511,450.361938 980.986755,437.338562 982.914673,423.748657 
	C983.272278,422.058014 983.924866,420.369934 983.939636,418.676331 
	C984.033936,407.882477 983.987427,397.087433 983.987915,386.292755 
	C983.989197,356.565948 984.029053,326.838928 983.891663,297.112762 
	C983.883972,295.440399 982.419556,293.774780 980.749878,292.234009 
M310.949066,292.450134 
	C297.710388,292.450134 284.471710,292.450134 271.066895,292.450134 
	C271.066895,319.583435 271.082397,346.235260 271.061249,372.887054 
	C271.047882,389.713776 271.322998,406.550110 270.851257,423.364777 
	C270.232544,445.415985 258.625671,461.429779 239.625748,467.517670 
	C228.725082,471.010406 217.663406,471.248444 206.568741,468.698242 
	C189.373596,464.745850 178.354431,454.090607 174.172379,437.038666 
	C172.526932,430.329407 171.934555,423.215088 171.904648,416.280762 
	C171.738571,377.795746 171.893295,339.309296 171.937454,300.823364 
	C171.940628,298.047089 171.937866,295.270844 171.937866,292.351807 
	C158.218781,292.351807 145.124893,292.351807 131.398026,292.351807 
	C131.398026,294.813599 131.398819,297.106720 131.397888,299.399811 
	C131.387375,325.223633 131.321014,351.047638 131.385376,376.871246 
	C131.428543,394.194092 130.913406,411.561401 131.956970,428.829712 
	C134.138901,464.934174 154.728928,492.098389 186.902679,502.376740 
	C207.246689,508.875885 227.970993,509.197296 248.516068,503.780975 
	C274.630371,496.896393 294.400757,481.839966 304.257202,456.026276 
	C307.548584,447.406250 308.846252,438.024933 311.828033,428.777985 
	C312.215576,427.266632 312.939453,425.755798 312.941620,424.243896 
	C313.002594,382.111847 313.006317,339.979614 312.931519,297.847595 
	C312.928589,296.185455 312.062164,294.524841 310.949066,292.450134 
M604.936340,500.590637 
	C640.516541,514.172058 675.011414,511.513245 708.916138,493.429993 
	C714.412781,500.192657 719.938232,507.045532 725.543640,513.832336 
	C726.454102,514.934753 727.697205,516.534119 728.822510,516.564331 
	C737.367981,516.793884 745.922424,516.689941 754.775940,516.689941 
	C752.608154,509.171509 750.892639,502.491455 745.443481,497.062439 
	C739.715942,491.356140 735.023010,484.611328 729.740784,478.152527 
	C731.216003,476.599304 732.436829,475.266510 733.707397,473.983032 
	C768.911682,438.423309 774.293091,377.856506 745.912903,336.546814 
	C711.312988,286.183746 645.500793,270.754303 592.978699,301.874481 
	C554.310547,324.785980 534.563538,359.636780 537.544739,404.773346 
	C540.486328,449.311127 563.072266,481.655945 604.936340,500.590637 
M1267.873413,424.688110 
	C1269.170898,424.113800 1270.454224,423.084503 1271.768433,423.043243 
	C1277.762695,422.855072 1283.776245,423.151367 1289.761597,422.852142 
	C1293.065918,422.686981 1294.721191,423.850769 1296.350952,426.708466 
	C1309.632080,449.996826 1323.163452,473.142365 1336.483032,496.409027 
	C1338.054810,499.154541 1339.633545,500.484558 1343.018799,500.425659 
	C1355.847412,500.202362 1368.682495,500.355774 1381.515137,500.335724 
	C1382.900879,500.333557 1384.286499,500.119476 1386.135498,499.964966 
	C1369.165527,472.023499 1352.529419,444.631714 1335.771362,417.039276 
	C1336.969482,416.515961 1337.551025,416.224457 1338.157959,416.002197 
	C1358.526001,408.542664 1371.220215,394.202728 1376.295044,373.176270 
	C1384.658569,338.525116 1367.028076,306.599609 1333.338013,296.574615 
	C1324.361206,293.903412 1314.704590,292.613983 1305.319824,292.392456 
	C1281.000366,291.818390 1256.658447,292.188385 1232.325562,292.197357 
	C1230.738159,292.197968 1229.150757,292.333221 1227.438110,292.411591 
	C1227.438110,361.841370 1227.438110,430.796356 1227.438110,500.019073 
	C1240.998779,500.019073 1254.350586,500.019073 1267.864624,500.019073 
	C1267.864624,474.978912 1267.864624,450.318634 1267.873413,424.688110 
M1007.911316,475.309509 
	C1004.732971,483.429565 1001.554688,491.549622 998.112854,500.342896 
	C1011.991699,500.342896 1025.111328,500.217987 1038.225342,500.433289 
	C1041.390991,500.485229 1042.432495,499.230591 1043.387939,496.533752 
	C1047.494873,484.941895 1051.932983,473.467285 1056.039917,461.875397 
	C1057.081543,458.935486 1058.477905,457.844543 1061.712524,457.870605 
	C1080.867676,458.025055 1100.024902,457.921967 1119.181519,457.908203 
	C1125.326660,457.903778 1131.471924,457.907562 1137.704956,457.907562 
	C1142.442505,470.996307 1147.030762,483.841705 1151.801758,496.618866 
	C1152.338013,498.054565 1153.890503,500.153503 1155.002686,500.172974 
	C1168.923828,500.416229 1182.850830,500.332336 1197.322144,500.332336 
	C1170.546021,430.575317 1144.024048,361.480286 1117.426270,292.187622 
	C1105.851929,292.187622 1094.198364,292.336304 1082.552979,292.095154 
	C1079.150635,292.024689 1077.766479,293.049866 1076.540649,296.260773 
	C1053.834595,355.734100 1030.967041,415.145752 1007.911316,475.309509 
M485.116608,301.397919 
	C458.206177,286.720490 429.976898,282.120911 400.280792,291.056427 
	C373.141022,299.222717 356.279297,320.487274 354.552795,347.838654 
	C352.920837,373.692444 366.003540,393.959503 392.900116,405.662994 
	C404.006805,410.495850 415.882416,413.530823 427.182037,417.960754 
	C436.261017,421.520172 445.727417,424.868591 453.714417,430.250854 
	C465.193817,437.986542 464.974609,454.071228 453.723419,462.222870 
	C448.638641,465.906830 442.311279,468.746429 436.156982,469.919678 
	C417.952728,473.390106 401.138702,468.398804 385.581360,458.966675 
	C380.377075,455.811401 375.649506,451.869812 370.611389,448.220551 
	C363.012695,458.290680 355.504456,468.240906 347.658539,478.638641 
	C348.509918,479.276123 349.326965,479.831116 350.081421,480.461060 
	C374.459747,500.818604 402.595490,509.353912 434.092163,506.701111 
	C451.267670,505.254517 467.367645,500.575287 481.368011,489.789246 
	C510.510803,467.337463 511.482727,416.887482 479.890289,397.031219 
	C469.582001,390.552368 457.951141,386.045227 446.631378,381.343658 
	C434.064880,376.124268 420.939301,372.222443 408.489349,366.761566 
	C400.896545,363.431213 396.600983,356.646729 396.804047,347.905151 
	C397.008942,339.085205 401.571381,332.824799 409.141815,328.736755 
	C417.188141,324.391693 425.932068,323.505005 434.876434,324.370392 
	C450.749451,325.906158 464.510712,332.477142 476.957611,342.765381 
	C483.881409,331.685425 490.634735,320.878235 497.647156,309.656494 
	C493.455841,306.893707 489.591766,304.346619 485.116608,301.397919 
M1472.808960,612.521729 
	C1473.059326,629.830200 1482.612549,643.968872 1497.394287,648.907166 
	C1514.183105,654.516052 1531.310669,649.359863 1542.060547,635.401245 
	C1542.734009,634.526672 1543.418335,633.365601 1543.435181,632.327026 
	C1543.553711,625.048340 1543.497803,617.766846 1543.497803,610.269653 
	C1532.358032,610.269653 1521.458008,610.269653 1510.356201,610.269653 
	C1510.356201,613.773132 1510.356201,616.990601 1510.356201,620.843445 
	C1517.678833,620.843445 1524.747559,620.843445 1531.587524,620.843445 
	C1533.201538,628.473206 1529.640747,633.008362 1524.139404,636.341003 
	C1513.304077,642.904907 1497.603638,639.906738 1490.342773,630.045410 
	C1481.925171,618.612732 1483.451904,601.221802 1493.663330,592.220520 
	C1503.721558,583.354309 1518.613281,583.793579 1528.491821,593.232849 
	C1529.280884,593.986694 1530.158936,594.647278 1531.214355,595.535095 
	C1534.005737,592.704529 1536.550537,590.124084 1539.074463,587.564758 
	C1530.018433,576.020630 1513.863770,571.847473 1498.075195,576.818909 
	C1483.150269,581.518311 1473.810303,594.367981 1472.808960,612.521729 
M365.774231,613.448608 
	C365.773193,612.948975 365.795929,612.448059 365.767700,611.949951 
	C364.644592,592.131958 352.346588,577.836365 334.088837,575.119385 
	C315.935303,572.417908 299.413879,582.150085 293.262482,599.168640 
	C286.917511,616.722717 293.379456,636.128906 308.615234,645.674194 
	C329.071960,658.490479 363.965485,648.443909 365.774231,613.448608 
M777.358337,648.253418 
	C797.479858,656.184082 816.468018,646.473694 819.629761,626.470337 
	C820.222412,622.721069 819.975464,618.827576 819.986328,615.000183 
	C820.022644,602.214905 820.000122,589.429443 820.000122,576.495239 
	C815.812378,576.495239 812.086731,576.495239 807.998413,576.495239 
	C807.998413,578.596802 807.997314,580.401245 807.998596,582.205750 
	C808.007874,595.370728 808.071228,608.535950 808.008118,621.700562 
	C807.967163,630.255066 803.779480,636.523926 796.802490,638.842651 
	C784.297913,642.998413 773.347656,635.291382 773.137512,621.862244 
	C772.931580,608.700989 773.148071,595.533142 773.177673,582.368225 
	C773.182068,580.427063 773.178284,578.485840 773.178284,576.545166 
	C768.968506,576.545166 765.401978,576.545166 761.712280,576.545166 
	C761.712280,593.162231 761.314758,609.477844 761.859070,625.762024 
	C762.194031,635.781555 767.668030,643.265320 777.358337,648.253418 
M655.288452,627.872742 
	C655.398682,635.104309 651.700623,639.154602 644.355652,639.946838 
	C635.179504,640.936646 628.063721,637.049072 622.130493,630.138062 
	C619.396484,633.357605 616.957397,636.229797 614.549866,639.064880 
	C625.772339,651.166260 643.579407,654.483826 656.680664,647.098267 
	C664.288330,642.809631 667.335999,636.058899 667.150757,627.547180 
	C666.973938,619.422668 662.618225,614.086243 655.582275,610.971008 
	C650.895081,608.895813 645.820923,607.708191 640.966675,605.991089 
	C638.320190,605.054871 635.517517,604.220154 633.228943,602.680176 
	C627.834961,599.050476 627.997070,591.385620 633.646851,588.164246 
	C636.112671,586.758301 639.518860,585.588257 642.122009,586.127319 
	C647.740967,587.290649 653.116943,589.627991 659.102051,591.657898 
	C660.559692,589.892517 662.779053,587.204590 664.992554,584.523804 
	C657.844421,576.365540 644.716858,572.822815 633.423096,575.970764 
	C623.606812,578.706848 617.620544,586.020813 617.279358,595.695435 
	C616.961914,604.695984 621.912170,611.526855 631.632507,615.015747 
	C636.481262,616.755981 641.739319,617.532898 646.336792,619.737244 
	C649.668823,621.334961 652.219299,624.562683 655.288452,627.872742 
M163.701050,649.938660 
	C178.934448,652.678833 191.890549,649.112427 201.943558,636.299255 
	C198.959671,633.702087 196.230972,631.326965 193.513199,628.961365 
	C180.471695,641.693665 166.895767,643.234802 155.986450,633.339172 
	C146.160660,624.426392 145.014862,605.688782 153.688080,594.915466 
	C157.604340,590.051025 162.678955,587.092041 168.884476,586.170349 
	C178.770752,584.702026 186.751923,588.263489 193.003433,596.042358 
	C196.192581,593.074524 198.922577,590.533936 201.632126,588.012329 
	C190.601273,575.464294 173.611252,571.521301 158.514420,577.636475 
	C143.872116,583.567566 135.351288,597.823181 136.011719,615.284119 
	C136.642242,631.954102 146.609802,644.767822 163.701050,649.938660 
M1099.102173,576.302490 
	C1081.148315,576.302490 1063.194458,576.302490 1045.007324,576.302490 
	C1045.007324,579.990051 1045.007324,583.239929 1045.007324,587.028320 
	C1052.622192,587.028320 1060.023560,587.028320 1068.052246,587.028320 
	C1068.052246,608.266113 1068.052246,628.973572 1068.052246,649.612854 
	C1072.114380,649.612854 1075.527100,649.612854 1079.285767,649.612854 
	C1079.285767,628.699219 1079.285767,608.073364 1079.285767,586.979004 
	C1086.889282,586.979004 1094.147583,586.979004 1102.737793,586.979004 
	C1101.710815,582.942871 1100.866943,579.625854 1099.102173,576.302490 
M1196.531860,603.499817 
	C1196.531860,618.895813 1196.531860,634.291870 1196.531860,649.473206 
	C1200.735718,649.473206 1204.294556,649.473206 1207.696777,649.473206 
	C1207.696777,624.870911 1207.696777,600.695068 1207.696777,576.462158 
	C1203.901978,576.462158 1200.480713,576.462158 1196.535645,576.462158 
	C1196.535645,585.277039 1196.535645,593.888428 1196.531860,603.499817 
z"/>
<path fill="#F49813" opacity="1.000000" stroke="none" 
	d="
M604.594604,500.417053 
	C563.072266,481.655945 540.486328,449.311127 537.544739,404.773346 
	C534.563538,359.636780 554.310547,324.785980 592.978699,301.874481 
	C645.500793,270.754303 711.312988,286.183746 745.912903,336.546814 
	C774.293091,377.856506 768.911682,438.423309 733.707397,473.983032 
	C732.436829,475.266510 731.216003,476.599304 729.740784,478.152527 
	C735.023010,484.611328 739.715942,491.356140 745.443481,497.062439 
	C750.892639,502.491455 752.608154,509.171509 754.775940,516.689941 
	C745.922424,516.689941 737.367981,516.793884 728.822510,516.564331 
	C727.697205,516.534119 726.454102,514.934753 725.543640,513.832336 
	C719.938232,507.045532 714.412781,500.192657 708.916138,493.429993 
	C675.011414,511.513245 640.516541,514.172058 604.594604,500.417053 
M702.716492,444.795563 
	C703.409058,445.663422 704.101624,446.531250 704.815918,447.426270 
	C728.597412,423.885590 732.090881,381.930878 709.188599,352.522491 
	C685.138611,321.640320 640.080688,314.956451 607.935730,337.677460 
	C575.290344,360.752167 566.864990,405.809265 589.120422,439.886719 
	C613.440002,477.124847 660.577271,476.537231 683.706360,463.274811 
	C678.435608,455.692841 673.175903,448.126801 667.352905,439.750458 
	C676.882812,439.750458 685.338623,439.945923 693.778503,439.664276 
	C697.727295,439.532471 700.520142,440.636047 702.716492,444.795563 
z"/>
<path fill="#FBFAFB" opacity="1.000000" stroke="none" 
	d="
M1267.869019,425.173218 
	C1267.864624,450.318634 1267.864624,474.978912 1267.864624,500.019073 
	C1254.350586,500.019073 1240.998779,500.019073 1227.438110,500.019073 
	C1227.438110,430.796356 1227.438110,361.841370 1227.438110,292.411591 
	C1229.150757,292.333221 1230.738159,292.197968 1232.325562,292.197357 
	C1256.658447,292.188385 1281.000366,291.818390 1305.319824,292.392456 
	C1314.704590,292.613983 1324.361206,293.903412 1333.338013,296.574615 
	C1367.028076,306.599609 1384.658569,338.525116 1376.295044,373.176270 
	C1371.220215,394.202728 1358.526001,408.542664 1338.157959,416.002197 
	C1337.551025,416.224457 1336.969482,416.515961 1335.771362,417.039276 
	C1352.529419,444.631714 1369.165527,472.023499 1386.135498,499.964966 
	C1384.286499,500.119476 1382.900879,500.333557 1381.515137,500.335724 
	C1368.682495,500.355774 1355.847412,500.202362 1343.018799,500.425659 
	C1339.633545,500.484558 1338.054810,499.154541 1336.483032,496.409027 
	C1323.163452,473.142365 1309.632080,449.996826 1296.350952,426.708466 
	C1294.721191,423.850769 1293.065918,422.686981 1289.761597,422.852142 
	C1283.776245,423.151367 1277.762695,422.855072 1271.768433,423.043243 
	C1270.454224,423.084503 1269.170898,424.113800 1267.869019,425.173218 
M1335.564453,349.409821 
	C1332.155396,337.135681 1323.199463,330.421265 1311.411621,329.396088 
	C1297.122070,328.153320 1282.642090,329.101196 1268.141357,329.101196 
	C1268.141357,348.783142 1268.141357,368.467010 1268.141357,388.266724 
	C1280.452637,388.266724 1292.421265,388.487457 1304.378906,388.219330 
	C1327.098877,387.709930 1339.356445,372.762665 1335.564453,349.409821 
z"/>
<path fill="#FBFBFB" opacity="1.000000" stroke="none" 
	d="
M311.055267,428.991638 
	C308.846252,438.024933 307.548584,447.406250 304.257202,456.026276 
	C294.400757,481.839966 274.630371,496.896393 248.516068,503.780975 
	C227.970993,509.197296 207.246689,508.875885 186.902679,502.376740 
	C154.728928,492.098389 134.138901,464.934174 131.956970,428.829712 
	C130.913406,411.561401 131.428543,394.194092 131.385376,376.871246 
	C131.321014,351.047638 131.387375,325.223633 131.397888,299.399811 
	C131.398819,297.106720 131.398026,294.813599 131.398026,292.351807 
	C145.124893,292.351807 158.218781,292.351807 171.937866,292.351807 
	C171.937866,295.270844 171.940628,298.047089 171.937454,300.823364 
	C171.893295,339.309296 171.738571,377.795746 171.904648,416.280762 
	C171.934555,423.215088 172.526932,430.329407 174.172379,437.038666 
	C178.354431,454.090607 189.373596,464.745850 206.568741,468.698242 
	C217.663406,471.248444 228.725082,471.010406 239.625748,467.517670 
	C258.625671,461.429779 270.232544,445.415985 270.851257,423.364777 
	C271.322998,406.550110 271.047882,389.713776 271.061249,372.887054 
	C271.082397,346.235260 271.066895,319.583435 271.066895,292.450134 
	C284.471710,292.450134 297.710388,292.450134 311.200989,293.131714 
	C311.320343,338.872711 311.187805,383.932190 311.055267,428.991638 
z"/>
<path fill="#FBFBFB" opacity="1.000000" stroke="none" 
	d="
M982.161804,423.984924 
	C980.986755,437.338562 978.473511,450.361938 972.356018,462.443787 
	C963.529602,479.875580 949.796631,492.018616 931.613708,498.826599 
	C906.337769,508.290253 880.711121,508.592133 855.395264,499.257874 
	C827.090027,488.821411 811.460510,467.539429 805.911255,438.404480 
	C804.918701,433.193512 804.216980,427.836945 804.198792,422.544800 
	C804.053223,380.232544 804.103516,337.919617 804.102661,295.606873 
	C804.102661,294.643127 804.206238,293.679382 804.276001,292.463928 
	C817.781250,292.463928 831.022949,292.463928 844.826660,292.463928 
	C844.826660,294.159363 844.827209,295.767090 844.826538,297.374786 
	C844.809692,337.688690 844.803223,378.002563 844.769226,418.316467 
	C844.759949,429.304169 846.297607,439.912994 852.392212,449.370056 
	C856.546143,455.815765 861.996460,460.943939 869.151917,463.849304 
	C885.852356,470.630310 902.732239,471.054565 919.044983,463.097382 
	C934.992310,455.318481 941.141907,440.833191 941.777588,424.153778 
	C942.525696,404.523560 942.130371,384.848297 942.155334,365.192474 
	C942.181763,344.369263 942.118958,323.545898 942.096375,302.722626 
	C942.092834,299.416016 942.095886,296.109436 942.095886,292.234009 
	C955.230042,292.234009 967.989990,292.234009 981.341064,292.611115 
	C982.003784,296.970001 982.135559,300.951752 982.137573,304.933563 
	C982.157898,344.617340 982.156799,384.301147 982.161804,423.984924 
z"/>
<path fill="#FBFBFC" opacity="1.000000" stroke="none" 
	d="
M1008.022339,474.939941 
	C1030.967041,415.145752 1053.834595,355.734100 1076.540649,296.260773 
	C1077.766479,293.049866 1079.150635,292.024689 1082.552979,292.095154 
	C1094.198364,292.336304 1105.851929,292.187622 1117.426270,292.187622 
	C1144.024048,361.480286 1170.546021,430.575317 1197.322144,500.332336 
	C1182.850830,500.332336 1168.923828,500.416229 1155.002686,500.172974 
	C1153.890503,500.153503 1152.338013,498.054565 1151.801758,496.618866 
	C1147.030762,483.841705 1142.442505,470.996307 1137.704956,457.907562 
	C1131.471924,457.907562 1125.326660,457.903778 1119.181519,457.908203 
	C1100.024902,457.921967 1080.867676,458.025055 1061.712524,457.870605 
	C1058.477905,457.844543 1057.081543,458.935486 1056.039917,461.875397 
	C1051.932983,473.467285 1047.494873,484.941895 1043.387939,496.533752 
	C1042.432495,499.230591 1041.390991,500.485229 1038.225342,500.433289 
	C1025.111328,500.217987 1011.991699,500.342896 998.112854,500.342896 
	C1001.554688,491.549622 1004.732971,483.429565 1008.022339,474.939941 
M1075.088135,408.541595 
	C1073.592529,412.690613 1072.096924,416.839630 1070.502441,421.263031 
	C1088.958618,421.263031 1106.764771,421.263031 1125.016357,421.263031 
	C1115.849487,396.100952 1106.884033,371.491455 1097.671021,346.202759 
	C1090.037842,367.262115 1082.689941,387.534393 1075.088135,408.541595 
z"/>
<path fill="#FBFBFC" opacity="1.000000" stroke="none" 
	d="
M1539.078613,377.237915 
	C1539.142578,389.138275 1539.206543,401.038605 1538.631104,413.198608 
	C1517.270020,413.441498 1496.548218,413.385315 1475.826538,413.432739 
	C1469.878174,413.446350 1463.930664,413.759277 1457.982666,413.934998 
	C1457.685669,414.610535 1457.131470,415.285248 1457.129395,415.961670 
	C1457.080566,431.772858 1457.091553,447.584229 1457.091553,463.948456 
	C1488.793335,463.948456 1520.326782,463.948456 1552.115234,463.948456 
	C1552.115234,476.291809 1552.115234,488.085052 1551.554688,500.224091 
	C1506.366455,500.543518 1461.738647,500.517120 1417.111084,500.490753 
	C1416.946411,498.511292 1416.638428,496.531891 1416.638062,494.552429 
	C1416.626953,428.903656 1416.645386,363.254883 1416.659424,297.606110 
	C1416.659790,295.960846 1416.659546,294.315582 1416.659546,292.410645 
	C1461.917847,292.410645 1506.791138,292.410645 1551.927246,292.410645 
	C1551.927246,304.387054 1551.927246,316.157776 1551.927246,328.417114 
	C1520.461304,328.417114 1489.058105,328.417114 1457.176392,328.417114 
	C1457.176392,344.837860 1457.176392,360.777161 1458.031494,377.039490 
	C1485.617188,377.320984 1512.347900,377.279449 1539.078613,377.237915 
z"/>
<path fill="#FBFBFC" opacity="1.000000" stroke="none" 
	d="
M485.422150,301.598724 
	C489.591766,304.346619 493.455841,306.893707 497.647156,309.656494 
	C490.634735,320.878235 483.881409,331.685425 476.957611,342.765381 
	C464.510712,332.477142 450.749451,325.906158 434.876434,324.370392 
	C425.932068,323.505005 417.188141,324.391693 409.141815,328.736755 
	C401.571381,332.824799 397.008942,339.085205 396.804047,347.905151 
	C396.600983,356.646729 400.896545,363.431213 408.489349,366.761566 
	C420.939301,372.222443 434.064880,376.124268 446.631378,381.343658 
	C457.951141,386.045227 469.582001,390.552368 479.890289,397.031219 
	C511.482727,416.887482 510.510803,467.337463 481.368011,489.789246 
	C467.367645,500.575287 451.267670,505.254517 434.092163,506.701111 
	C402.595490,509.353912 374.459747,500.818604 350.081421,480.461060 
	C349.326965,479.831116 348.509918,479.276123 347.658539,478.638641 
	C355.504456,468.240906 363.012695,458.290680 370.611389,448.220551 
	C375.649506,451.869812 380.377075,455.811401 385.581360,458.966675 
	C401.138702,468.398804 417.952728,473.390106 436.156982,469.919678 
	C442.311279,468.746429 448.638641,465.906830 453.723419,462.222870 
	C464.974609,454.071228 465.193817,437.986542 453.714417,430.250854 
	C445.727417,424.868591 436.261017,421.520172 427.182037,417.960754 
	C415.882416,413.530823 404.006805,410.495850 392.900116,405.662994 
	C366.003540,393.959503 352.920837,373.692444 354.552795,347.838654 
	C356.279297,320.487274 373.141022,299.222717 400.280792,291.056427 
	C429.976898,282.120911 458.206177,286.720490 485.422150,301.598724 
z"/>
<path fill="#EFEFF1" opacity="1.000000" stroke="none" 
	d="
M1317.117432,576.963257 
	C1326.102539,574.661865 1328.705566,575.614014 1333.637939,582.742126 
	C1344.152954,597.938354 1354.712158,613.103821 1366.008179,629.368896 
	C1366.008179,611.153870 1366.008179,594.043762 1366.008179,576.583008 
	C1370.226562,576.583008 1373.756958,576.583008 1377.607666,576.583008 
	C1377.607666,600.927246 1377.607666,625.160828 1377.607666,649.901550 
	C1374.248779,649.901550 1371.080078,650.221252 1368.027954,649.763367 
	C1366.555420,649.542419 1364.924561,648.119751 1364.007568,646.796204 
	C1352.909546,630.775330 1341.932861,614.670288 1330.916504,598.592773 
	C1330.567139,598.083008 1330.130005,597.633423 1329.013916,596.287781 
	C1329.013916,614.592163 1329.013916,631.917236 1329.013916,649.558533 
	C1324.876709,649.558533 1321.296753,649.558533 1317.477051,648.826172 
	C1317.197388,624.383606 1317.157349,600.673462 1317.117432,576.963257 
z"/>
<path fill="#EFEFF0" opacity="1.000000" stroke="none" 
	d="
M460.676636,576.059753 
	C468.872437,574.638184 473.751831,578.199402 478.157410,585.239319 
	C487.066742,599.476074 497.120880,612.996582 506.704712,626.811096 
	C507.234161,627.574219 507.779938,628.326050 509.104675,630.189636 
	C509.104675,611.492493 509.104675,594.145508 509.104675,576.502563 
	C513.016479,576.502563 516.441589,576.502563 520.316589,576.502563 
	C520.316589,600.685730 520.316589,624.901062 520.316589,649.128662 
	C511.472351,651.247375 509.991455,650.699280 505.151428,643.772095 
	C494.382782,628.359802 483.585907,612.967346 471.768982,597.674438 
	C471.768982,614.938477 471.768982,632.202576 471.768982,649.860352 
	C467.803772,649.860352 464.668793,649.860352 460.993774,649.436218 
	C460.424866,633.950745 460.353363,618.889343 460.382812,603.828125 
	C460.400909,594.571838 460.573456,585.315857 460.676636,576.059753 
z"/>
<path fill="#F4F4F5" opacity="1.000000" stroke="none" 
	d="
M1472.811279,612.047485 
	C1473.810303,594.367981 1483.150269,581.518311 1498.075195,576.818909 
	C1513.863770,571.847473 1530.018433,576.020630 1539.074463,587.564758 
	C1536.550537,590.124084 1534.005737,592.704529 1531.214355,595.535095 
	C1530.158936,594.647278 1529.280884,593.986694 1528.491821,593.232849 
	C1518.613281,583.793579 1503.721558,583.354309 1493.663330,592.220520 
	C1483.451904,601.221802 1481.925171,618.612732 1490.342773,630.045410 
	C1497.603638,639.906738 1513.304077,642.904907 1524.139404,636.341003 
	C1529.640747,633.008362 1533.201538,628.473206 1531.587524,620.843445 
	C1524.747559,620.843445 1517.678833,620.843445 1510.356201,620.843445 
	C1510.356201,616.990601 1510.356201,613.773132 1510.356201,610.269653 
	C1521.458008,610.269653 1532.358032,610.269653 1543.497803,610.269653 
	C1543.497803,617.766846 1543.553711,625.048340 1543.435181,632.327026 
	C1543.418335,633.365601 1542.734009,634.526672 1542.060547,635.401245 
	C1531.310669,649.359863 1514.183105,654.516052 1497.394287,648.907166 
	C1482.612549,643.968872 1473.059326,629.830200 1472.811279,612.047485 
z"/>
<path fill="#F4F4F5" opacity="1.000000" stroke="none" 
	d="
M365.772644,613.901123 
	C363.965485,648.443909 329.071960,658.490479 308.615234,645.674194 
	C293.379456,636.128906 286.917511,616.722717 293.262482,599.168640 
	C299.413879,582.150085 315.935303,572.417908 334.088837,575.119385 
	C352.346588,577.836365 364.644592,592.131958 365.767700,611.949951 
	C365.795929,612.448059 365.773193,612.948975 365.772644,613.901123 
M313.305237,590.700806 
	C304.172607,598.062500 301.540131,607.816223 303.612183,618.880188 
	C305.467621,628.787415 311.206665,635.878113 321.089508,638.815186 
	C332.483368,642.201172 344.370941,637.458679 350.054443,627.652588 
	C356.488861,616.550903 354.550385,601.086243 345.653503,592.542725 
	C337.297150,584.518311 324.709839,583.606079 313.305237,590.700806 
z"/>
<path fill="#F3F3F4" opacity="1.000000" stroke="none" 
	d="
M777.002563,648.116699 
	C767.668030,643.265320 762.194031,635.781555 761.859070,625.762024 
	C761.314758,609.477844 761.712280,593.162231 761.712280,576.545166 
	C765.401978,576.545166 768.968506,576.545166 773.178284,576.545166 
	C773.178284,578.485840 773.182068,580.427063 773.177673,582.368225 
	C773.148071,595.533142 772.931580,608.700989 773.137512,621.862244 
	C773.347656,635.291382 784.297913,642.998413 796.802490,638.842651 
	C803.779480,636.523926 807.967163,630.255066 808.008118,621.700562 
	C808.071228,608.535950 808.007874,595.370728 807.998596,582.205750 
	C807.997314,580.401245 807.998413,578.596802 807.998413,576.495239 
	C812.086731,576.495239 815.812378,576.495239 820.000122,576.495239 
	C820.000122,589.429443 820.022644,602.214905 819.986328,615.000183 
	C819.975464,618.827576 820.222412,622.721069 819.629761,626.470337 
	C816.468018,646.473694 797.479858,656.184082 777.002563,648.116699 
z"/>
<path fill="#F5F5F6" opacity="1.000000" stroke="none" 
	d="
M655.203369,627.468140 
	C652.219299,624.562683 649.668823,621.334961 646.336792,619.737244 
	C641.739319,617.532898 636.481262,616.755981 631.632507,615.015747 
	C621.912170,611.526855 616.961914,604.695984 617.279358,595.695435 
	C617.620544,586.020813 623.606812,578.706848 633.423096,575.970764 
	C644.716858,572.822815 657.844421,576.365540 664.992554,584.523804 
	C662.779053,587.204590 660.559692,589.892517 659.102051,591.657898 
	C653.116943,589.627991 647.740967,587.290649 642.122009,586.127319 
	C639.518860,585.588257 636.112671,586.758301 633.646851,588.164246 
	C627.997070,591.385620 627.834961,599.050476 633.228943,602.680176 
	C635.517517,604.220154 638.320190,605.054871 640.966675,605.991089 
	C645.820923,607.708191 650.895081,608.895813 655.582275,610.971008 
	C662.618225,614.086243 666.973938,619.422668 667.150757,627.547180 
	C667.335999,636.058899 664.288330,642.809631 656.680664,647.098267 
	C643.579407,654.483826 625.772339,651.166260 614.549866,639.064880 
	C616.957397,636.229797 619.396484,633.357605 622.130493,630.138062 
	C628.063721,637.049072 635.179504,640.936646 644.355652,639.946838 
	C651.700623,639.154602 655.398682,635.104309 655.203369,627.468140 
z"/>
<path fill="#F4F4F5" opacity="1.000000" stroke="none" 
	d="
M163.287964,649.878296 
	C146.609802,644.767822 136.642242,631.954102 136.011719,615.284119 
	C135.351288,597.823181 143.872116,583.567566 158.514420,577.636475 
	C173.611252,571.521301 190.601273,575.464294 201.632126,588.012329 
	C198.922577,590.533936 196.192581,593.074524 193.003433,596.042358 
	C186.751923,588.263489 178.770752,584.702026 168.884476,586.170349 
	C162.678955,587.092041 157.604340,590.051025 153.688080,594.915466 
	C145.014862,605.688782 146.160660,624.426392 155.986450,633.339172 
	C166.895767,643.234802 180.471695,641.693665 193.513199,628.961365 
	C196.230972,631.326965 198.959671,633.702087 201.943558,636.299255 
	C191.890549,649.112427 178.934448,652.678833 163.287964,649.878296 
z"/>
<path fill="#F4F4F5" opacity="1.000000" stroke="none" 
	d="
M1099.562500,576.305664 
	C1100.866943,579.625854 1101.710815,582.942871 1102.737793,586.979004 
	C1094.147583,586.979004 1086.889282,586.979004 1079.285767,586.979004 
	C1079.285767,608.073364 1079.285767,628.699219 1079.285767,649.612854 
	C1075.527100,649.612854 1072.114380,649.612854 1068.052246,649.612854 
	C1068.052246,628.973572 1068.052246,608.266113 1068.052246,587.028320 
	C1060.023560,587.028320 1052.622192,587.028320 1045.007324,587.028320 
	C1045.007324,583.239929 1045.007324,579.990051 1045.007324,576.302490 
	C1063.194458,576.302490 1081.148315,576.302490 1099.562500,576.305664 
z"/>
<path fill="#F5F5F6" opacity="1.000000" stroke="none" 
	d="
M916.911926,576.211731 
	C920.384460,576.211731 923.856995,576.211731 927.850098,576.211731 
	C927.850098,596.935974 927.850098,617.440430 927.850098,638.461121 
	C939.713196,638.461121 951.070679,638.461121 962.753418,638.461121 
	C962.753418,642.356140 962.753418,645.745300 962.753418,649.603882 
	C947.555054,649.603882 932.345520,649.603882 916.904846,648.830688 
	C916.700623,645.396301 916.744629,642.735229 916.751770,640.073975 
	C916.809082,618.786560 916.859436,597.499146 916.911926,576.211731 
z"/>
<path fill="#F6F7F7" opacity="1.000000" stroke="none" 
	d="
M1196.533691,602.999878 
	C1196.535645,593.888428 1196.535645,585.277039 1196.535645,576.462158 
	C1200.480713,576.462158 1203.901978,576.462158 1207.696777,576.462158 
	C1207.696777,600.695068 1207.696777,624.870911 1207.696777,649.473206 
	C1204.294556,649.473206 1200.735718,649.473206 1196.531860,649.473206 
	C1196.531860,634.291870 1196.531860,618.895813 1196.533691,602.999878 
z"/>
<path fill="#00020F" opacity="1.000000" stroke="none" 
	d="
M982.538208,423.866791 
	C982.156799,384.301147 982.157898,344.617340 982.137573,304.933563 
	C982.135559,300.951752 982.003784,296.970001 981.782715,292.547119 
	C982.419556,293.774780 983.883972,295.440399 983.891663,297.112762 
	C984.029053,326.838928 983.989197,356.565948 983.987915,386.292755 
	C983.987427,397.087433 984.033936,407.882477 983.939636,418.676331 
	C983.924866,420.369934 983.272278,422.058014 982.538208,423.866791 
z"/>
<path fill="#00020F" opacity="1.000000" stroke="none" 
	d="
M311.441650,428.884827 
	C311.187805,383.932190 311.320343,338.872711 311.525452,293.338379 
	C312.062164,294.524841 312.928589,296.185455 312.931519,297.847595 
	C313.006317,339.979614 313.002594,382.111847 312.941620,424.243896 
	C312.939453,425.755798 312.215576,427.266632 311.441650,428.884827 
z"/>
<path fill="#00020F" opacity="1.000000" stroke="none" 
	d="
M916.475342,576.324158 
	C916.859436,597.499146 916.809082,618.786560 916.751770,640.073975 
	C916.744629,642.735229 916.700623,645.396301 916.572876,648.514648 
	C915.982971,647.705566 915.072449,646.441040 915.067444,645.172974 
	C914.981689,623.467285 914.991394,601.761108 915.053284,580.055237 
	C915.056763,578.848083 915.695679,577.642761 916.475342,576.324158 
z"/>
<path fill="#00020F" opacity="1.000000" stroke="none" 
	d="
M1417.305664,500.872162 
	C1461.738647,500.517120 1506.366455,500.543518 1551.454224,500.630646 
	C1550.425049,501.125122 1548.936279,501.935364 1547.446289,501.937775 
	C1505.395508,502.005951 1463.344604,501.999054 1421.293701,501.961639 
	C1420.029053,501.960510 1418.764893,501.499939 1417.305664,500.872162 
z"/>
<path fill="#00020F" opacity="1.000000" stroke="none" 
	d="
M1458.273193,414.238586 
	C1463.930664,413.759277 1469.878174,413.446350 1475.826538,413.432739 
	C1496.548218,413.385315 1517.270020,413.441498 1538.447021,413.547974 
	C1537.754272,414.087067 1536.607544,414.925323 1535.458374,414.928619 
	C1510.468384,415.000244 1485.478149,414.982086 1460.488037,414.957245 
	C1459.846436,414.956604 1459.205200,414.686584 1458.273193,414.238586 
z"/>
<path fill="#00020F" opacity="1.000000" stroke="none" 
	d="
M1538.806396,376.904663 
	C1512.347900,377.279449 1485.617188,377.320984 1458.434814,377.223328 
	C1459.190918,376.724457 1460.397827,376.053741 1461.606445,376.051056 
	C1486.457397,375.995178 1511.308472,376.010345 1536.159546,376.043701 
	C1536.951294,376.044769 1537.742554,376.387787 1538.806396,376.904663 
z"/>
<path fill="#00020F" opacity="1.000000" stroke="none" 
	d="
M460.276367,576.251221 
	C460.573456,585.315857 460.400909,594.571838 460.382812,603.828125 
	C460.353363,618.889343 460.424866,633.950745 460.580017,649.465210 
	C460.142120,648.692932 459.091278,647.469604 459.085999,646.241760 
	C458.989807,623.884888 459.009247,601.527405 459.058136,579.170166 
	C459.060120,578.260437 459.591431,577.351807 460.276367,576.251221 
z"/>
<path fill="#00020F" opacity="1.000000" stroke="none" 
	d="
M1316.802856,577.246643 
	C1317.157349,600.673462 1317.197388,624.383606 1317.166016,648.559509 
	C1316.733643,647.810730 1316.061646,646.597229 1316.058228,645.381775 
	C1315.995850,623.568970 1316.009277,601.755859 1316.035522,579.942871 
	C1316.036499,579.138428 1316.330811,578.334290 1316.802856,577.246643 
z"/>
<path fill="#0C1522" opacity="1.000000" stroke="none" 
	d="
M702.494263,444.487579 
	C700.520142,440.636047 697.727295,439.532471 693.778503,439.664276 
	C685.338623,439.945923 676.882812,439.750458 667.352905,439.750458 
	C673.175903,448.126801 678.435608,455.692841 683.706360,463.274811 
	C660.577271,476.537231 613.440002,477.124847 589.120422,439.886719 
	C566.864990,405.809265 575.290344,360.752167 607.935730,337.677460 
	C640.080688,314.956451 685.138611,321.640320 709.188599,352.522491 
	C732.090881,381.930878 728.597412,423.885590 704.815918,447.426270 
	C704.101624,446.531250 703.409058,445.663422 702.494263,444.487579 
z"/>
<path fill="#0D1523" opacity="1.000000" stroke="none" 
	d="
M1335.690186,349.824402 
	C1339.356445,372.762665 1327.098877,387.709930 1304.378906,388.219330 
	C1292.421265,388.487457 1280.452637,388.266724 1268.141357,388.266724 
	C1268.141357,368.467010 1268.141357,348.783142 1268.141357,329.101196 
	C1282.642090,329.101196 1297.122070,328.153320 1311.411621,329.396088 
	C1323.199463,330.421265 1332.155396,337.135681 1335.690186,349.824402 
z"/>
<path fill="#111927" opacity="1.000000" stroke="none" 
	d="
M1075.215088,408.174133 
	C1082.689941,387.534393 1090.037842,367.262115 1097.671021,346.202759 
	C1106.884033,371.491455 1115.849487,396.100952 1125.016357,421.263031 
	C1106.764771,421.263031 1088.958618,421.263031 1070.502441,421.263031 
	C1072.096924,416.839630 1073.592529,412.690613 1075.215088,408.174133 
z"/>
<path fill="#0E1725" opacity="1.000000" stroke="none" 
	d="
M313.588196,590.470093 
	C324.709839,583.606079 337.297150,584.518311 345.653503,592.542725 
	C354.550385,601.086243 356.488861,616.550903 350.054443,627.652588 
	C344.370941,637.458679 332.483368,642.201172 321.089508,638.815186 
	C311.206665,635.878113 305.467621,628.787415 303.612183,618.880188 
	C301.540131,607.816223 304.172607,598.062500 313.588196,590.470093 
z"/>
</svg>
