<svg width="3703" height="890" xmlns="http://www.w3.org/2000/svg" xmlns:xlink="http://www.w3.org/1999/xlink" xml:space="preserve" overflow="hidden"><defs><clipPath id="clip0"><rect x="348" y="870" width="3703" height="890"/></clipPath></defs><g clip-path="url(#clip0)" transform="translate(-348 -870)"><path d="M3270.48 961.887 3270.48 1127.19 3395.33 1127.19C3446.83 1127.19 3484.29 1094.44 3484.29 1044.54 3484.29 994.635 3446.83 961.887 3395.33 961.887L3270.48 961.887ZM2835.94 958.768 2738.4 1221.53 2933.49 1221.53 2835.94 958.768ZM1665.23 954.09C1559.88 954.09 1492.77 1034.4 1492.77 1142 1492.77 1248.82 1559.88 1329.91 1665.23 1329.91 1692.54 1329.91 1717.51 1324.45 1739.36 1314.32L1743.9 1310.27 1755.95 1286.06C1777.54 1310.23 1780.98 1237.12 1802.57 1261.3 1825.2 1229.33 1837.69 1188 1837.69 1142 1837.69 1034.4 1769.8 954.09 1665.23 954.09ZM3691.38 881.577 4048 881.577 4048 961.887 3782.68 961.887 3782.68 1096.78 4042.54 1096.78 4042.54 1177.09 3782.68 1177.09 3782.68 1321.33 4048 1321.33 4048 1401.64 3691.38 1401.64 3691.38 881.577ZM3179.18 881.577 3407.82 881.577C3510.82 881.577 3577.93 948.632 3577.93 1044.54 3577.93 1137.32 3517.06 1187.22 3454.64 1197.36L3581.83 1401.64 3476.49 1401.64 3361 1207.5 3270.48 1207.5 3270.48 1401.64 3179.18 1401.64 3179.18 881.577ZM2778.98 881.577 2892.91 881.577 3097.36 1401.64 2997.48 1401.64 2959.24 1301.84 2712.65 1301.84 2674.41 1401.64 2574.53 1401.64 2778.98 881.577ZM2044.76 881.577 2136.84 881.577 2136.84 1193.46C2136.84 1276.11 2182.88 1329.91 2270.27 1329.91 2356.89 1329.91 2402.93 1276.11 2402.93 1193.46L2402.93 881.577 2495.01 881.577 2495.01 1195.8C2495.01 1325.23 2420.88 1411 2270.27 1411 2118.89 1411 2044.76 1324.45 2044.76 1196.58L2044.76 881.577ZM350 881.577 442.081 881.577 442.081 1193.46C442.081 1276.11 488.121 1329.91 575.519 1329.91 662.137 1329.91 708.178 1276.11 708.178 1193.46L708.178 881.577 800.258 881.577 800.258 1195.8C800.258 1325.23 726.126 1411 575.519 1411 424.133 1411 350 1324.45 350 1196.58L350 881.577ZM1106.85 873.78C1188.01 873.78 1253.56 899.51 1301.94 946.293L1249.66 1014.13C1209.08 973.583 1153.67 954.87 1099.05 954.87 1045.21 954.87 1010.87 980.6 1010.87 1019.59 1010.87 1060.13 1063.94 1073.39 1125.58 1088.98 1211.42 1110.81 1313.65 1137.32 1313.65 1250.38 1313.65 1336.93 1252.78 1411 1112.32 1411 1016.33 1411 946.884 1377.47 900.844 1328.35L951.566 1258.18C987.462 1296.38 1043.65 1329.91 1116.22 1329.91 1191.13 1329.91 1220.78 1293.26 1220.78 1258.96 1220.78 1212.17 1165.38 1198.14 1102.17 1181.77 1017.11 1160.71 917.231 1135.76 917.231 1025.82 917.231 940.056 992.924 873.78 1106.85 873.78ZM1665.23 873C1821.3 873 1931.33 986.838 1931.33 1142 1931.33 1216.85 1905.58 1281.57 1861.88 1329.13L1838.79 1319.77 1806.94 1353 1796.33 1379.81C1758.87 1400.08 1714.39 1411 1665.23 1411 1509.16 1411 1399.13 1297.16 1399.13 1142 1399.13 986.838 1509.16 873 1665.23 873Z" fill="#0E2B5D" fill-rule="evenodd" fill-opacity="1"/><path d="M1664.93 954.153C1559.65 954.153 1492.58 1034.53 1492.58 1142.21 1492.58 1249.11 1559.65 1330.27 1664.93 1330.27 1692.22 1330.27 1717.18 1324.8 1739.01 1314.66L1674.28 1241.31 1674.94 1240.77 1783.6 1240.77 1802.18 1261.6C1824.79 1229.61 1837.27 1188.25 1837.27 1142.21 1837.27 1034.53 1769.42 954.153 1664.93 954.153ZM1664.93 873C1820.89 873 1930.85 986.927 1930.85 1142.21 1930.85 1217.12 1905.12 1281.89 1861.45 1329.49L1949 1428 1838.56 1428 1795.94 1380.21C1758.51 1400.49 1714.06 1411.42 1664.93 1411.42 1508.96 1411.42 1399 1297.49 1399 1142.21 1399 986.927 1508.96 873 1664.93 873Z" fill="#EC9523" fill-rule="evenodd" fill-opacity="1"/><path d="M860.014 1604.2C850.939 1604.2 842.73 1605.81 835.387 1609.02 828.045 1612.24 821.733 1616.69 816.453 1622.38 811.173 1628.07 807.089 1634.7 804.201 1642.29 801.314 1649.87 799.87 1658.03 799.87 1666.77 799.87 1676.17 801.314 1684.82 804.201 1692.73 807.089 1700.65 811.173 1707.49 816.453 1713.26 821.733 1719.03 828.045 1723.56 835.387 1726.86 842.73 1730.16 850.939 1731.81 860.014 1731.81 869.089 1731.81 877.34 1730.16 884.765 1726.86 892.19 1723.56 898.543 1719.03 903.823 1713.26 909.103 1707.49 913.187 1700.65 916.075 1692.73 918.962 1684.82 920.406 1676.17 920.406 1666.77 920.406 1658.03 918.962 1649.87 916.075 1642.29 913.187 1634.7 909.103 1628.07 903.823 1622.38 898.543 1616.69 892.19 1612.24 884.765 1609.02 877.34 1605.81 869.089 1604.2 860.014 1604.2ZM3447.62 1580.46 3488.95 1580.46 3573.85 1710.54 3574.34 1710.54 3574.34 1580.46 3605.53 1580.46 3605.53 1755.55 3565.93 1755.55 3479.3 1621.27 3478.8 1621.27 3478.8 1755.55 3447.62 1755.55ZM3144.37 1580.46 3175.55 1580.46 3175.55 1755.55 3144.37 1755.55ZM2752.59 1580.46 2891.19 1580.46 2891.19 1608.65 2837.49 1608.65 2837.49 1755.55 2806.3 1755.55 2806.3 1608.65 2752.59 1608.65ZM2433.53 1580.46 2464.71 1580.46 2464.71 1727.36 2539.21 1727.36 2539.21 1755.55 2433.53 1755.55ZM2020.27 1580.46 2051.46 1580.46 2051.46 1690.26C2051.46 1694.55 2052.12 1699.04 2053.44 1703.74 2054.76 1708.44 2056.95 1712.77 2060 1716.72 2063.05 1720.68 2067.09 1723.94 2072.12 1726.49 2077.16 1729.05 2083.39 1730.32 2090.81 1730.32 2098.24 1730.32 2104.47 1729.05 2109.5 1726.49 2114.53 1723.94 2118.57 1720.68 2121.63 1716.72 2124.68 1712.77 2126.87 1708.44 2128.19 1703.74 2129.51 1699.04 2130.17 1694.55 2130.17 1690.26L2130.17 1580.46 2161.35 1580.46 2161.35 1691.25C2161.35 1701.8 2159.54 1711.32 2155.91 1719.81 2152.28 1728.3 2147.33 1735.52 2141.06 1741.45 2134.79 1747.39 2127.36 1751.96 2118.78 1755.18 2110.2 1758.39 2100.88 1760 2090.81 1760 2080.75 1760 2071.42 1758.39 2062.84 1755.18 2054.26 1751.96 2046.8 1747.39 2040.44 1741.45 2034.09 1735.52 2029.14 1728.3 2025.59 1719.81 2022.05 1711.32 2020.27 1701.8 2020.27 1691.25ZM1216.62 1580.46 1257.95 1580.46 1342.85 1710.54 1343.34 1710.54 1343.34 1580.46 1374.53 1580.46 1374.53 1755.55 1334.93 1755.55 1248.3 1621.27 1247.8 1621.27 1247.8 1755.55 1216.62 1755.55ZM3960.48 1576.01C3973.85 1576.01 3986.39 1577.62 3998.1 1580.83 4009.82 1584.05 4020.29 1589.78 4029.53 1598.02L4006.52 1621.27C4000.91 1615.82 3994.1 1611.62 3986.1 1608.65 3978.09 1605.69 3969.64 1604.2 3960.73 1604.2 3951.65 1604.2 3943.44 1605.81 3936.1 1609.02 3928.76 1612.24 3922.45 1616.69 3917.17 1622.38 3911.89 1628.07 3907.8 1634.7 3904.91 1642.29 3902.03 1649.87 3900.58 1658.03 3900.58 1666.77 3900.58 1676.17 3902.03 1684.82 3904.91 1692.73 3907.8 1700.65 3911.89 1707.49 3917.17 1713.26 3922.45 1719.03 3928.76 1723.56 3936.1 1726.86 3943.44 1730.16 3951.65 1731.81 3960.73 1731.81 3968.65 1731.81 3976.11 1731.07 3983.13 1729.58 3990.14 1728.1 3996.37 1725.79 4001.81 1722.66L4001.81 1681.36 3965.93 1681.36 3965.93 1653.17 4033 1653.17 4033 1742.69C4011.38 1754.23 3987.21 1760 3960.48 1760 3946.95 1760 3934.53 1757.82 3923.23 1753.45 3911.93 1749.08 3902.19 1742.9 3894.02 1734.9 3885.86 1726.9 3879.46 1717.3 3874.84 1706.09 3870.22 1694.88 3867.91 1682.43 3867.91 1668.75 3867.91 1654.73 3870.22 1642 3874.84 1630.54 3879.46 1619.08 3885.86 1609.31 3894.02 1601.23 3902.19 1593.16 3911.93 1586.93 3923.23 1582.56 3934.53 1578.19 3946.95 1576.01 3960.48 1576.01ZM1704.73 1576.01C1713.97 1576.01 1722.92 1577.41 1731.58 1580.21 1740.25 1583.02 1748.04 1587.63 1754.97 1594.06L1732.2 1618.05C1728.9 1613.27 1724.49 1609.77 1718.96 1607.54 1713.43 1605.31 1707.62 1604.2 1701.51 1604.2 1697.88 1604.2 1694.37 1604.61 1690.99 1605.44 1687.61 1606.26 1684.56 1607.58 1681.83 1609.39 1679.11 1611.21 1676.93 1613.56 1675.28 1616.44 1673.62 1619.33 1672.8 1622.75 1672.8 1626.71 1672.8 1632.64 1674.86 1637.18 1678.99 1640.31 1683.11 1643.44 1688.23 1646.16 1694.33 1648.47 1700.44 1650.78 1707.12 1653 1714.38 1655.15 1721.64 1657.29 1728.32 1660.26 1734.43 1664.05 1740.53 1667.84 1745.65 1672.87 1749.78 1679.13 1753.9 1685.4 1755.96 1693.72 1755.96 1704.11 1755.96 1713.51 1754.23 1721.71 1750.76 1728.72 1747.3 1735.72 1742.64 1741.53 1736.78 1746.15 1730.92 1750.77 1724.12 1754.23 1716.36 1756.54 1708.61 1758.85 1700.44 1760 1691.86 1760 1680.97 1760 1670.49 1758.19 1660.42 1754.56 1650.36 1750.93 1641.7 1744.83 1634.44 1736.26L1657.95 1713.51C1661.74 1719.28 1666.74 1723.77 1672.92 1726.99 1679.11 1730.2 1685.67 1731.81 1692.6 1731.81 1696.23 1731.81 1699.86 1731.31 1703.49 1730.32 1707.12 1729.33 1710.42 1727.85 1713.39 1725.87 1716.36 1723.89 1718.75 1721.38 1720.57 1718.33 1722.38 1715.28 1723.29 1711.78 1723.29 1707.82 1723.29 1701.39 1721.23 1696.44 1717.1 1692.98 1712.98 1689.52 1707.86 1686.59 1701.76 1684.2 1695.65 1681.81 1688.97 1679.55 1681.71 1677.4 1674.45 1675.26 1667.77 1672.33 1661.66 1668.62 1655.56 1664.91 1650.44 1659.97 1646.32 1653.79 1642.19 1647.6 1640.13 1639.32 1640.13 1628.93 1640.13 1619.86 1641.99 1612.03 1645.7 1605.44 1649.41 1598.84 1654.28 1593.36 1660.3 1588.99 1666.32 1584.62 1673.21 1581.37 1680.97 1579.22 1688.72 1577.08 1696.64 1576.01 1704.73 1576.01ZM859.767 1576.01C873.462 1575.84 886.002 1577.86 897.388 1582.07 908.773 1586.27 918.591 1592.41 926.841 1600.49 935.091 1608.57 941.527 1618.3 946.147 1629.67 950.767 1641.05 953.077 1653.74 953.077 1667.76 953.077 1681.44 950.767 1693.89 946.147 1705.1 941.527 1716.31 935.091 1725.96 926.841 1734.03 918.591 1742.11 908.773 1748.42 897.388 1752.95 886.002 1757.49 873.462 1759.83 859.767 1760 846.236 1760 833.82 1757.82 822.517 1753.45 811.214 1749.08 801.479 1742.9 793.311 1734.9 785.143 1726.9 778.749 1717.3 774.129 1706.09 769.509 1694.88 767.199 1682.43 767.199 1668.75 767.199 1654.73 769.509 1642 774.129 1630.54 778.749 1619.08 785.143 1609.31 793.311 1601.23 801.479 1593.16 811.214 1586.93 822.517 1582.56 833.82 1578.19 846.236 1576.01 859.767 1576.01ZM457.568 1576.01C469.448 1576.01 480.462 1578.11 490.61 1582.32 500.758 1586.52 510.204 1593.65 518.95 1603.71L494.694 1621.51C488.258 1614.59 482.03 1609.97 476.007 1607.66 469.984 1605.36 463.921 1604.2 457.815 1604.2 448.74 1604.2 440.531 1605.81 433.188 1609.02 425.846 1612.24 419.534 1616.69 414.254 1622.38 408.974 1628.07 404.89 1634.7 402.002 1642.29 399.115 1649.87 397.671 1658.03 397.671 1666.77 397.671 1676.17 399.115 1684.82 402.002 1692.73 404.89 1700.65 408.974 1707.49 414.254 1713.26 419.534 1719.03 425.846 1723.56 433.188 1726.86 440.531 1730.16 448.74 1731.81 457.815 1731.81 464.911 1731.81 471.799 1730.12 478.482 1726.74 485.165 1723.36 491.394 1717.96 497.169 1710.54L522.91 1728.84C514.989 1739.72 505.337 1747.64 493.951 1752.58 482.566 1757.53 470.438 1760 457.568 1760 444.037 1760 431.621 1757.82 420.318 1753.45 409.015 1749.08 399.28 1742.9 391.112 1734.9 382.944 1726.9 376.55 1717.3 371.93 1706.09 367.31 1694.88 365 1682.43 365 1668.75 365 1654.73 367.31 1642 371.93 1630.54 376.55 1619.08 382.944 1609.31 391.112 1601.23 399.28 1593.16 409.015 1586.93 420.318 1582.56 431.621 1578.19 444.037 1576.01 457.568 1576.01Z" fill="#6C7585" fill-rule="evenodd" fill-opacity="1"/></g></svg>